<mxfile host="Electron" agent="Mozilla/5.0 (Windows NT 10.0; Win64; x64) AppleWebKit/537.36 (KHTML, like Gecko) draw.io/24.7.8 Chrome/128.0.6613.36 Electron/32.0.1 Safari/537.36" version="24.7.8">
  <diagram name="Page-1" id="Zd4-cBwP84ulcf8Joi87">
    <mxGraphModel dx="2320" dy="2204" grid="1" gridSize="10" guides="1" tooltips="1" connect="1" arrows="1" fold="1" page="1" pageScale="1" pageWidth="850" pageHeight="1100" math="0" shadow="0">
      <root>
        <mxCell id="0" />
        <mxCell id="1" parent="0" />
        <mxCell id="hFyfwz3MevGxlML0_WYV-52" style="edgeStyle=orthogonalEdgeStyle;rounded=0;orthogonalLoop=1;jettySize=auto;html=1;exitX=0.5;exitY=0;exitDx=0;exitDy=0;entryX=0;entryY=0.5;entryDx=0;entryDy=0;" edge="1" parent="1" source="hFyfwz3MevGxlML0_WYV-34" target="hFyfwz3MevGxlML0_WYV-40">
          <mxGeometry relative="1" as="geometry" />
        </mxCell>
        <mxCell id="hFyfwz3MevGxlML0_WYV-34" value="Start New Game" style="ellipse;whiteSpace=wrap;html=1;" vertex="1" parent="1">
          <mxGeometry x="200" y="-620" width="120" height="80" as="geometry" />
        </mxCell>
        <mxCell id="hFyfwz3MevGxlML0_WYV-61" style="edgeStyle=orthogonalEdgeStyle;rounded=0;orthogonalLoop=1;jettySize=auto;html=1;exitX=0.5;exitY=1;exitDx=0;exitDy=0;" edge="1" parent="1" source="hFyfwz3MevGxlML0_WYV-35" target="hFyfwz3MevGxlML0_WYV-36">
          <mxGeometry relative="1" as="geometry" />
        </mxCell>
        <mxCell id="hFyfwz3MevGxlML0_WYV-63" style="edgeStyle=orthogonalEdgeStyle;rounded=0;orthogonalLoop=1;jettySize=auto;html=1;exitX=1;exitY=1;exitDx=0;exitDy=0;entryX=0;entryY=0.5;entryDx=0;entryDy=0;" edge="1" parent="1" source="hFyfwz3MevGxlML0_WYV-35" target="hFyfwz3MevGxlML0_WYV-38">
          <mxGeometry relative="1" as="geometry">
            <Array as="points">
              <mxPoint x="302" y="-340" />
            </Array>
          </mxGeometry>
        </mxCell>
        <mxCell id="hFyfwz3MevGxlML0_WYV-64" style="edgeStyle=orthogonalEdgeStyle;rounded=0;orthogonalLoop=1;jettySize=auto;html=1;exitX=1;exitY=0.5;exitDx=0;exitDy=0;entryX=0;entryY=0.5;entryDx=0;entryDy=0;" edge="1" parent="1" source="hFyfwz3MevGxlML0_WYV-35" target="hFyfwz3MevGxlML0_WYV-39">
          <mxGeometry relative="1" as="geometry" />
        </mxCell>
        <mxCell id="hFyfwz3MevGxlML0_WYV-65" style="edgeStyle=orthogonalEdgeStyle;rounded=0;orthogonalLoop=1;jettySize=auto;html=1;exitX=1;exitY=0;exitDx=0;exitDy=0;entryX=0;entryY=1;entryDx=0;entryDy=0;" edge="1" parent="1" source="hFyfwz3MevGxlML0_WYV-35" target="hFyfwz3MevGxlML0_WYV-40">
          <mxGeometry relative="1" as="geometry">
            <Array as="points">
              <mxPoint x="398" y="-470" />
            </Array>
          </mxGeometry>
        </mxCell>
        <mxCell id="hFyfwz3MevGxlML0_WYV-35" value="Player makes a move" style="ellipse;whiteSpace=wrap;html=1;" vertex="1" parent="1">
          <mxGeometry x="200" y="-480" width="120" height="80" as="geometry" />
        </mxCell>
        <mxCell id="hFyfwz3MevGxlML0_WYV-71" style="edgeStyle=orthogonalEdgeStyle;rounded=0;orthogonalLoop=1;jettySize=auto;html=1;exitX=0.5;exitY=1;exitDx=0;exitDy=0;entryX=0;entryY=0.5;entryDx=0;entryDy=0;" edge="1" parent="1" source="hFyfwz3MevGxlML0_WYV-36" target="hFyfwz3MevGxlML0_WYV-37">
          <mxGeometry relative="1" as="geometry" />
        </mxCell>
        <mxCell id="hFyfwz3MevGxlML0_WYV-36" value="Check win" style="ellipse;whiteSpace=wrap;html=1;" vertex="1" parent="1">
          <mxGeometry x="200" y="-210" width="120" height="80" as="geometry" />
        </mxCell>
        <mxCell id="hFyfwz3MevGxlML0_WYV-37" value="End Game&lt;div&gt;(Win or draw)&lt;/div&gt;" style="ellipse;whiteSpace=wrap;html=1;" vertex="1" parent="1">
          <mxGeometry x="280" y="-50" width="120" height="80" as="geometry" />
        </mxCell>
        <mxCell id="hFyfwz3MevGxlML0_WYV-38" value="Validate Move" style="ellipse;whiteSpace=wrap;html=1;" vertex="1" parent="1">
          <mxGeometry x="400" y="-380" width="120" height="80" as="geometry" />
        </mxCell>
        <mxCell id="hFyfwz3MevGxlML0_WYV-73" style="edgeStyle=orthogonalEdgeStyle;rounded=0;orthogonalLoop=1;jettySize=auto;html=1;exitX=0;exitY=0;exitDx=0;exitDy=0;entryX=1;entryY=1;entryDx=0;entryDy=0;" edge="1" parent="1" source="hFyfwz3MevGxlML0_WYV-39" target="hFyfwz3MevGxlML0_WYV-40">
          <mxGeometry relative="1" as="geometry">
            <Array as="points">
              <mxPoint x="482" y="-458" />
            </Array>
          </mxGeometry>
        </mxCell>
        <mxCell id="hFyfwz3MevGxlML0_WYV-39" value="Switch Player turns" style="ellipse;whiteSpace=wrap;html=1;" vertex="1" parent="1">
          <mxGeometry x="470" y="-480" width="120" height="80" as="geometry" />
        </mxCell>
        <mxCell id="hFyfwz3MevGxlML0_WYV-40" value="Display Game Board" style="ellipse;whiteSpace=wrap;html=1;" vertex="1" parent="1">
          <mxGeometry x="380" y="-700" width="120" height="80" as="geometry" />
        </mxCell>
        <mxCell id="hFyfwz3MevGxlML0_WYV-41" value="Display Game Result" style="ellipse;whiteSpace=wrap;html=1;" vertex="1" parent="1">
          <mxGeometry x="490" y="150" width="120" height="80" as="geometry" />
        </mxCell>
        <mxCell id="hFyfwz3MevGxlML0_WYV-45" value="Connect4" style="shape=umlFrame;whiteSpace=wrap;html=1;pointerEvents=0;" vertex="1" parent="1">
          <mxGeometry x="130" y="-720" width="760" height="810" as="geometry" />
        </mxCell>
        <mxCell id="hFyfwz3MevGxlML0_WYV-46" value="System" style="shape=umlActor;verticalLabelPosition=bottom;verticalAlign=top;html=1;" vertex="1" parent="1">
          <mxGeometry x="920" y="-580" width="30" height="60" as="geometry" />
        </mxCell>
        <mxCell id="hFyfwz3MevGxlML0_WYV-49" style="edgeStyle=orthogonalEdgeStyle;rounded=0;orthogonalLoop=1;jettySize=auto;html=1;exitX=0.5;exitY=0.5;exitDx=0;exitDy=0;exitPerimeter=0;entryX=0;entryY=0.5;entryDx=0;entryDy=0;" edge="1" parent="1" source="hFyfwz3MevGxlML0_WYV-47" target="hFyfwz3MevGxlML0_WYV-34">
          <mxGeometry relative="1" as="geometry" />
        </mxCell>
        <mxCell id="hFyfwz3MevGxlML0_WYV-51" style="edgeStyle=orthogonalEdgeStyle;rounded=0;orthogonalLoop=1;jettySize=auto;html=1;exitX=0.5;exitY=0.5;exitDx=0;exitDy=0;exitPerimeter=0;entryX=0;entryY=0.5;entryDx=0;entryDy=0;" edge="1" parent="1" source="hFyfwz3MevGxlML0_WYV-47" target="hFyfwz3MevGxlML0_WYV-35">
          <mxGeometry relative="1" as="geometry" />
        </mxCell>
        <mxCell id="hFyfwz3MevGxlML0_WYV-47" value="Player1/Player2" style="shape=umlActor;verticalLabelPosition=bottom;verticalAlign=top;html=1;" vertex="1" parent="1">
          <mxGeometry x="70" y="-580" width="30" height="60" as="geometry" />
        </mxCell>
        <mxCell id="hFyfwz3MevGxlML0_WYV-53" value="&amp;lt;&amp;lt;Include&amp;gt;&amp;gt;" style="text;html=1;align=center;verticalAlign=middle;resizable=0;points=[];autosize=1;strokeColor=none;fillColor=none;rotation=0;" vertex="1" parent="1">
          <mxGeometry x="270" y="-680" width="90" height="30" as="geometry" />
        </mxCell>
        <mxCell id="hFyfwz3MevGxlML0_WYV-58" value="&amp;lt;&amp;lt;Include&amp;gt;&amp;gt;" style="text;html=1;align=center;verticalAlign=middle;resizable=0;points=[];autosize=1;strokeColor=none;fillColor=none;" vertex="1" parent="1">
          <mxGeometry x="310" y="-370" width="90" height="30" as="geometry" />
        </mxCell>
        <mxCell id="hFyfwz3MevGxlML0_WYV-60" value="&amp;lt;&amp;lt;Include&amp;gt;&amp;gt;" style="text;html=1;align=center;verticalAlign=middle;resizable=0;points=[];autosize=1;strokeColor=none;fillColor=none;" vertex="1" parent="1">
          <mxGeometry x="350" y="-550" width="90" height="30" as="geometry" />
        </mxCell>
        <mxCell id="hFyfwz3MevGxlML0_WYV-62" value="&amp;lt;&amp;lt;Extend&amp;gt;&amp;gt;" style="text;html=1;align=center;verticalAlign=middle;resizable=0;points=[];autosize=1;strokeColor=none;fillColor=none;" vertex="1" parent="1">
          <mxGeometry x="180" y="-340" width="90" height="30" as="geometry" />
        </mxCell>
        <mxCell id="hFyfwz3MevGxlML0_WYV-69" value="&amp;lt;&amp;lt;Extend&amp;gt;&amp;gt;" style="text;html=1;align=center;verticalAlign=middle;resizable=0;points=[];autosize=1;strokeColor=none;fillColor=none;" vertex="1" parent="1">
          <mxGeometry x="380" y="-460" width="90" height="30" as="geometry" />
        </mxCell>
        <mxCell id="hFyfwz3MevGxlML0_WYV-72" value="&amp;lt;&amp;lt;Include&amp;gt;&amp;gt;" style="text;html=1;align=center;verticalAlign=middle;resizable=0;points=[];autosize=1;strokeColor=none;fillColor=none;" vertex="1" parent="1">
          <mxGeometry x="180" y="-80" width="90" height="30" as="geometry" />
        </mxCell>
        <mxCell id="hFyfwz3MevGxlML0_WYV-74" value="&amp;lt;&amp;lt;Include&amp;gt;&amp;gt;" style="text;html=1;align=center;verticalAlign=middle;resizable=0;points=[];autosize=1;strokeColor=none;fillColor=none;" vertex="1" parent="1">
          <mxGeometry x="475" y="-592" width="90" height="30" as="geometry" />
        </mxCell>
      </root>
    </mxGraphModel>
  </diagram>
</mxfile>
